<svg viewBox="0 0 100 100"
  xmlns="http://www.w3.org/2000/svg">
  <path d="m58.602 50.5-17.199-4.8008c-1-0.30078-1.8008-1.1016-2.1016-2.1016l-4.8008-17.199c-0.80078-2.8984-5-2.8984-5.8008 0l-4.8008 17.199c-0.30078 1-1.1016 1.8008-2.1016 2.1016l-17.098 4.8008c-2.8984 0.80078-2.8984 5 0 5.8008l17.199 4.8008c1 0.30078 1.8008 1.1016 2.1016 2.1016l4.8008 17.199c0.80078 2.8984 5 2.8984 5.8008 0l4.8008-17.199c0.30078-1 1.1016-1.8008 2.1016-2.1016l17.199-4.8008c2.7969-0.90234 2.7969-5-0.10156-5.8008z"/>
  <path d="m50.398 25 10.801 3c0.60156 0.19922 1.1016 0.69922 1.3008 1.3008l3.1016 10.801c0.5 1.8984 3.1016 1.8984 3.6992 0l3.1016-10.801c0.19922-0.60156 0.69922-1.1016 1.3008-1.3008l10.797-3c1.8984-0.5 1.8984-3.1016 0-3.6992l-10.898-3.1016c-0.60156-0.19922-1.1016-0.69922-1.3008-1.3008l-3-10.797c-0.5-1.8984-3.1016-1.8984-3.6992 0l-3.1016 10.801c-0.19922 0.60156-0.69922 1.1016-1.3008 1.3008l-10.801 3.1016c-1.8984 0.49609-1.8984 3.0938 0 3.6953z"/>
  <path d="m95.898 71.301-12.898-3.6016c-0.80078-0.19922-1.3008-0.80078-1.6016-1.6016l-3.6016-12.898c-0.60156-2.1992-3.6992-2.1992-4.3008 0l-3.6016 12.898c-0.19922 0.80078-0.80078 1.3008-1.6016 1.6016l-12.898 3.6016c-2.1992 0.60156-2.1992 3.6992 0 4.3008l12.898 3.6016c0.80078 0.19922 1.3008 0.80078 1.6016 1.6016l3.6016 12.898c0.60156 2.1992 3.6992 2.1992 4.3008 0l3.6016-12.898c0.19922-0.80078 0.80078-1.3984 1.6016-1.6016l12.898-3.6016c2.1016-0.60156 2.1016-3.7031 0-4.3008z"/>
</svg>
