<svg width="20" height="20" viewBox="0 0 20 20" fill="none" 
  xmlns="http://www.w3.org/2000/svg">
  <path d="M8.94782 0.0752733C4.44769 0.61332 0.9955 3.84547 0.177457 8.10378C-0.845415 13.5163 2.65772 18.7993 8.00294 19.9025C8.28464 19.9536 11.1733 20.2361 13.3469 19.5177C17.0288 18.081 19.2793 15.44 19.9447 11.4892C19.9707 11.4121 20.3023 8.18099 18.9728 5.56373C17.2078 1.94768 13.3209 -0.463876 8.94788 0.0752733H8.94782ZM9.84284 16.1572C9.02474 16.1572 8.41041 15.542 8.41041 14.7465C8.41041 13.8748 8.99876 13.2586 9.84284 13.2586C10.6869 13.2325 11.3262 13.8738 11.3262 14.7204C11.3262 15.542 10.7129 16.1572 9.84284 16.1572ZM13.0143 9.46217C12.6567 9.76976 12.298 10.0523 11.9145 10.3088C11.3521 10.6935 11.0194 11.2837 11.0194 12.0532H8.71798C8.6161 11.2326 8.66704 10.3088 9.40822 9.71867C9.84273 9.38502 10.3032 9.10349 10.6608 8.74378C10.9935 8.3851 11.3261 7.94824 11.4789 7.51241C11.6577 6.94833 11.2232 6.28104 10.7377 6.1017C10.0215 5.8452 9.1525 6.0506 8.84584 6.64074C8.66704 6.97439 8.56414 7.38416 8.41133 7.79496H6.2637C6.03396 6.64074 6.67326 5.23003 7.74707 4.53775C9.23044 3.61396 11.7616 3.81936 13.0663 4.99964C14.3698 6.15387 14.3439 8.3079 13.0143 9.46212L13.0143 9.46217Z" fill="#fff" fill-opacity="1" />
</svg>
